<?xml version="1.0" encoding="utf-8"?>
<!-- Generator: Adobe Illustrator 23.0.4, SVG Export Plug-In . SVG Version: 6.00 Build 0)  -->
<svg version="1.1" id="Calque_1" xmlns="http://www.w3.org/2000/svg" xmlns:xlink="http://www.w3.org/1999/xlink" x="0px" y="0px"
	 viewBox="0 0 566.93 566.93" style="enable-background:new 0 0 566.93 566.93;" xml:space="preserve">
<style type="text/css">
	.st0{display:none;fill:#F9D523;}
	.st1{fill:none;}
	.st2{fill:#2739C6;}
	.st3{fill:#F9D523;}
	.st4{fill:#2739C6;stroke:#2739C6;stroke-width:0.25;stroke-miterlimit:10;}
</style>
<rect class="st0" width="566.93" height="566.93"/>
<g>
	<path class="st1" d="M394.48,193.93l-0.18-0.16l-6-6.3c2.68,2.93,5.22,5.94,7.61,9.02C395.75,195.47,395.26,194.57,394.48,193.93z"
		/>
	<path class="st1" d="M195.08,367.42c22.46,23.62,52.78,37.08,85.37,37.9s63.54-11.1,87.16-33.57
		c23.62-22.46,37.08-52.78,37.9-85.37s-11.1-63.54-33.57-87.16c-2.64-2.78-5.39-5.41-8.24-7.9c0.01,0.01,0.01,0.01,0.02,0.02
		l0.21,0.19l7.61,8.01l-2.9,2.76l-7.52-7.91c-1.75-1.44-2.79-3.5-2.92-5.81c-0.03-0.59-0.01-1.17,0.08-1.73
		c-20.44-15.91-45.33-24.85-71.7-25.51c-32.59-0.82-63.54,11.1-87.16,33.57s-37.08,52.78-37.9,85.37
		c-0.66,26.42,7.05,51.76,21.96,72.99c0.42-0.02,0.84-0.01,1.27,0.03c2.3,0.25,4.3,1.38,5.65,3.21l7.52,7.91l-2.9,2.76l0,0
		l-0.1,0.09C194.97,367.3,195.03,367.36,195.08,367.42z"/>
	<path class="st2" d="M199.41,194.89c23.62-22.46,54.57-34.39,87.16-33.57c26.37,0.66,51.26,9.61,71.7,25.51
		c0.25-1.72,1.02-3.29,2.22-4.49c1.63-1.61,4.03-2.47,6.44-2.27c2.34,0.19,4.47,1.35,5.85,3.19l15.61,16.43
		c1.01,1.33,2.42,1.6,3.17,1.64c1.31,0.07,2.56-0.39,3.37-1.24c0.74-0.78,1.14-1.96,1.07-3.14c-0.01-0.16-0.05-0.31-0.08-0.47
		c-2.39-3.09-4.93-6.09-7.61-9.02l-1.94-2.04l0.02-0.02c-54.06-56.81-143.94-59.05-200.77-5c-56.78,54.01-59.09,143.78-5.2,200.63
		l5.82-5.53l-7.53-7.91c-1.77-1.47-2.82-3.65-2.9-6c-0.08-2.42,0.9-4.8,2.59-6.32c1.36-1.24,3.16-1.94,5.06-2.01
		c-14.91-21.23-22.62-46.57-21.96-72.99C162.33,247.67,175.79,217.35,199.41,194.89z"/>
	<path class="st2" d="M397.57,203.11c-1.6,1.52-3.9,2.35-6.23,2.22c-2.4-0.13-4.61-1.27-6.06-3.12l-15.65-16.48
		c-0.95-1.31-2.3-1.61-3.01-1.67c-1.26-0.1-2.45,0.29-3.3,1.12c-0.77,0.77-1.2,1.95-1.13,3.16c0.07,1.2,0.6,2.25,1.51,2.98
		c2.85,2.49,5.6,5.12,8.24,7.9c22.46,23.62,34.39,54.57,33.57,87.16s-14.28,62.91-37.9,85.37s-54.57,34.39-87.16,33.57
		s-62.91-14.28-85.37-37.9c-0.05-0.06-0.11-0.12-0.16-0.17l-5.78,5.5l7.87,8.27c1.78,1.55,2.8,3.8,2.81,6.21
		c0.01,2.33-0.93,4.59-2.53,6.11c-0.09,0.09-0.18,0.17-0.28,0.25c-0.51,0.44-1.09,0.8-1.69,1.09
		c54.58,43.33,134.13,40.97,186.07-8.43c51.93-49.39,58.29-128.68,17.79-185.36c-0.35,0.72-0.8,1.39-1.35,1.97
		C397.74,202.94,397.66,203.03,397.57,203.11z"/>
	<path class="st2" d="M180.29,380.89c3.56,3.74,7.26,7.25,11.09,10.54c1.13,0.09,2.25-0.22,3.03-0.89c0.89-0.76,1.41-2.01,1.38-3.33
		c-0.01-0.76-0.23-2.2-1.54-3.31l-0.16-0.15l-8.14-8.56l-5.82,5.53C180.18,380.77,180.24,380.83,180.29,380.89z"/>
	<path class="st2" d="M191.08,363l-3.81-4.02c-0.69-0.96-1.74-1.57-2.95-1.71c-1.21-0.14-2.42,0.22-3.23,0.95
		c-0.84,0.77-1.32,1.98-1.27,3.25c0.03,0.73,0.26,2.1,1.54,3.13l0.2,0.19l7.72,8.12l5.78-5.5
		C193.71,365.97,192.37,364.49,191.08,363z"/>
	<path class="st3" d="M388.31,187.46c-0.62-0.68-1.24-1.36-1.88-2.03c-0.01-0.01-0.02-0.02-0.04-0.04l-0.02,0.02L388.31,187.46z"/>
</g>
<g>
	<g>
		<path class="st4" d="M298.84,316.53c-0.84,0.82-1.84,1.22-3.01,1.22h-0.59c-1.17,0-2.18-0.42-3.01-1.27
			c-0.84-0.84-1.25-1.86-1.25-3.04v-23.31c0-1.35-0.21-2.65-0.63-3.89c-0.42-1.24-1.1-2.32-2.05-3.25c-0.95-0.93-2.23-1.66-3.85-2.2
			c-1.62-0.53-3.63-0.8-6.03-0.8c-1.56,0-3.1,0.34-4.6,1.01c-1.51,0.68-2.85,1.55-4.02,2.62c-1.17,1.07-2.12,2.25-2.85,3.55
			s-1.09,2.56-1.09,3.8v22.47c0,1.18-0.43,2.2-1.3,3.04s-1.86,1.27-2.97,1.27h-0.67c-1.17,0-2.18-0.42-3.01-1.27
			c-0.84-0.84-1.26-1.86-1.26-3.04v-60.47c0-1.24,0.42-2.27,1.26-3.08c0.84-0.82,1.84-1.22,3.01-1.22h0.5
			c1.17,0,2.18,0.42,3.01,1.27c0.84,0.84,1.26,1.86,1.26,3.04v24.66c1.62-2.03,3.47-3.66,5.57-4.9c2.09-1.24,4.51-1.86,7.24-1.86
			c3.91,0,7.23,0.49,9.96,1.48c2.73,0.99,4.97,2.35,6.7,4.1s2.99,3.79,3.77,6.12c0.78,2.34,1.17,4.86,1.17,7.56v23.31
			C300.09,314.69,299.67,315.71,298.84,316.53z"/>
		<path class="st4" d="M327.21,257.96c0,1.63-0.56,3-1.67,4.1c-1.12,1.1-2.43,1.65-3.93,1.65c-1.62,0-2.96-0.58-4.02-1.73
			c-1.06-1.15-1.59-2.49-1.59-4.01s0.53-2.84,1.59-3.97s2.4-1.69,4.02-1.69s2.96,0.54,4.02,1.6
			C326.68,254.97,327.21,256.33,327.21,257.96z M324.95,316.44c-0.84,0.87-1.84,1.31-3.01,1.31h-0.67c-1.17,0-2.18-0.42-3.01-1.27
			c-0.84-0.84-1.26-1.86-1.26-3.04v-37.67c0-1.24,0.42-2.27,1.26-3.08c0.84-0.82,1.84-1.22,3.01-1.22h0.67
			c1.17,0,2.18,0.42,3.01,1.27c0.84,0.84,1.26,1.86,1.26,3.04v37.67C326.21,314.57,325.79,315.57,324.95,316.44z"/>
		<path class="st4" d="M387.81,303.4c0,2.03-0.4,3.94-1.21,5.74s-2.08,3.38-3.81,4.73s-3.93,2.42-6.61,3.21
			c-2.68,0.79-5.89,1.18-9.63,1.18c-3.13,0-6.25-0.21-9.37-0.63c-3.13-0.42-5.94-1.04-8.45-1.86c-2.51-0.82-4.55-1.83-6.11-3.04
			c-1.56-1.21-2.34-2.58-2.34-4.1c0-1.13,0.22-2.01,0.67-2.66s0.98-1.11,1.59-1.39c0.61-0.34,1.37-0.53,2.26-0.59
			c0.72,0,1.42,0.17,2.09,0.51c1.9,1.07,3.79,1.93,5.69,2.58s3.72,1.15,5.48,1.52s3.36,0.61,4.81,0.72
			c1.45,0.11,2.68,0.17,3.68,0.17c1.12,0,2.39-0.1,3.81-0.3c1.42-0.2,2.76-0.55,4.02-1.06c1.26-0.51,2.3-1.17,3.14-1.98
			c0.84-0.82,1.26-1.87,1.26-3.17c0-0.9-0.22-1.67-0.67-2.32s-1-1.18-1.67-1.61c-0.67-0.42-1.41-0.73-2.22-0.93
			c-0.81-0.2-1.58-0.3-2.3-0.3l-13.48-0.42c-2.73-0.05-5.13-0.46-7.2-1.22s-3.78-1.74-5.15-2.96c-1.37-1.21-2.39-2.6-3.06-4.18
			c-0.67-1.57-1-3.26-1-5.07c0-1.69,0.33-3.36,1-5.03c0.67-1.66,1.83-3.15,3.47-4.48c1.65-1.32,3.82-2.39,6.53-3.21
			c2.71-0.82,6.1-1.22,10.17-1.22c2.4,0,4.81,0.21,7.24,0.63s4.6,1.01,6.53,1.77c1.93,0.76,3.49,1.65,4.69,2.66s1.8,2.14,1.8,3.38
			c0,1.35-0.47,2.41-1.42,3.17s-1.98,1.14-3.1,1.14c-0.5,0-0.96-0.1-1.38-0.3c-0.42-0.2-0.85-0.41-1.3-0.63
			c-1.73-0.79-3.71-1.52-5.94-2.2c-2.23-0.68-5.08-1.01-8.54-1.01c-1.17,0-2.4,0.1-3.68,0.3c-1.28,0.2-2.44,0.52-3.47,0.97
			s-1.88,1.03-2.55,1.73c-0.67,0.7-1,1.56-1,2.58c0,0.9,0.28,1.65,0.84,2.24s1.24,1.08,2.05,1.48c0.81,0.39,1.67,0.68,2.59,0.84
			c0.92,0.17,1.77,0.25,2.55,0.25l11.72,0.42c5.19,0.17,9.32,1.34,12.39,3.5C386.28,295.13,387.81,298.61,387.81,303.4z"/>
	</g>
	<path class="st4" d="M219.17,307.9c0.57-0.15,1.07-0.58,1.35-1.16c0.26-0.55,0.28-1.15,0.05-1.68l-0.05-0.13l-4.44-17.1
		c-0.42-1.1-0.34-2.29,0.23-3.34c0.55-1.03,1.48-1.77,2.51-1.99c0.4-0.09,0.83-0.09,1.25-0.02l-1.9-7.29
		c-0.28-1.12-0.85-1.98-1.71-2.6c-0.86-0.61-1.82-0.92-2.87-0.92h-4.32c-1.05,0-2.01,0.31-2.87,0.92c-0.86,0.62-1.43,1.46-1.7,2.52
		l-8.15,30.46h-0.17l-8.98-30.54c-0.28-1.06-0.85-1.89-1.7-2.48c-0.86-0.59-1.79-0.88-2.79-0.88h-0.75c-1,0-1.87,0.36-2.62,1.09
		s-1.12,1.62-1.12,2.69c0,0.28,0.05,0.64,0.17,1.09l11.23,37.76c0.28,0.95,0.83,1.75,1.66,2.39s1.77,0.96,2.83,0.96h4.66
		c1.11,0,2.08-0.34,2.91-1.01s1.39-1.54,1.66-2.6l7.65-30.37h0.17l6,23.81c0.03,0.03,0.06,0.06,0.09,0.08
		C217.95,307.92,218.6,308.05,219.17,307.9z"/>
	<path class="st4" d="M243.31,272.67c-0.8-0.67-1.68-1.01-2.62-1.01h-0.75c-1,0-1.93,0.31-2.79,0.92c-0.86,0.62-1.43,1.4-1.71,2.35
		l-9.23,30.63h-0.17l-5.46-21c-0.46-0.3-0.98-0.42-1.43-0.33c-0.51,0.11-1.02,0.53-1.32,1.09c-0.19,0.35-0.45,1.06-0.12,1.9
		l0.03,0.1l4.43,17.09c0.41,1,0.38,2.1-0.1,3.1c-0.5,1.04-1.43,1.83-2.49,2.11c-0.3,0.08-0.6,0.12-0.91,0.12
		c-0.27,0-0.54-0.04-0.81-0.1l1.11,4.4c0.28,1.06,0.83,1.93,1.66,2.6s1.8,1.01,2.91,1.01h4.91c1,0,1.93-0.32,2.79-0.96
		c0.86-0.64,1.43-1.44,1.7-2.39l11.31-37.76c0.17-0.34,0.25-0.73,0.25-1.17C244.52,274.23,244.12,273.34,243.31,272.67z"/>
</g>
</svg>
